<svg viewBox="0 0 900 250" width="900" height="250" xmlns="http://www.w3.org/2000/svg" role="img" aria-label="profile title block">
<defs><pattern id="g" width="20" height="20" patternUnits="userSpaceOnUse"><path d="M20 0H0V20" fill="none" stroke="#16304d" stroke-width="1"/></pattern></defs><rect width="900" height="250" fill="#0e2035"/><rect width="900" height="250" fill="url(#g)"/>
<rect x="8.5" y="8.5" width="883" height="233" fill="none" stroke="#2f5480"/>
<text x="28.0" y="34.0" font-family="ui-monospace,SFMono-Regular,Menlo,Consolas,monospace" font-size="11" fill="#93aec9" letter-spacing="2.4">FIG. 1 — IDENTITY</text>
<text x="872.0" y="34.0" font-family="ui-monospace,SFMono-Regular,Menlo,Consolas,monospace" font-size="9" fill="#63849f" text-anchor="end" letter-spacing="1.4">REV 2026-10-06</text>
<line x1="28" y1="46" x2="872" y2="46" stroke="#1f3a57"/>
<text x="28.0" y="92.0" font-family="ui-monospace,SFMono-Regular,Menlo,Consolas,monospace" font-size="30" fill="#dce8f5">ALEXANDER DOMANOV</text>
<text x="28.0" y="120.0" font-family="ui-monospace,SFMono-Regular,Menlo,Consolas,monospace" font-size="13" fill="#7fd1f5">FRONTEND DEVELOPER — REACT / TYPESCRIPT / NEXT.JS</text>
<circle cx="30" cy="150" r="2.5" fill="#93aec9"/><line x1="30" y1="150" x2="220" y2="150" stroke="#2f5480"/>
<text x="230.0" y="154.0" font-family="ui-monospace,SFMono-Regular,Menlo,Consolas,monospace" font-size="11" fill="#93aec9">team-built products, UI down to the data flow</text>
<circle cx="30" cy="174" r="2.5" fill="#93aec9"/><line x1="30" y1="174" x2="220" y2="174" stroke="#2f5480"/>
<text x="230.0" y="178.0" font-family="ui-monospace,SFMono-Regular,Menlo,Consolas,monospace" font-size="11" fill="#93aec9">profile generated by code in this repository</text>
<circle cx="30" cy="198" r="2.5" fill="#f5c86b"/><line x1="30" y1="198" x2="220" y2="198" stroke="#2f5480"/>
<text x="230.0" y="202.0" font-family="ui-monospace,SFMono-Regular,Menlo,Consolas,monospace" font-size="11" fill="#f5c86b">OPEN TO REMOTE ROLES</text>
<rect x="560" y="130" width="324" height="88" fill="#0e2035" stroke="#2f5480"/>
<line x1="722" y1="130" x2="722" y2="174" stroke="#1f3a57"/>
<line x1="560" y1="174" x2="884" y2="174" stroke="#1f3a57"/>
<text x="572.0" y="149.0" font-family="ui-monospace,SFMono-Regular,Menlo,Consolas,monospace" font-size="8" fill="#93aec9" letter-spacing="1.5">NAME</text>
<text x="572.0" y="166.0" font-family="ui-monospace,SFMono-Regular,Menlo,Consolas,monospace" font-size="12" fill="#dce8f5">A. DOMANOV</text>
<line x1="560" y1="174" x2="884" y2="174" stroke="#1f3a57"/>
<text x="734.0" y="149.0" font-family="ui-monospace,SFMono-Regular,Menlo,Consolas,monospace" font-size="8" fill="#93aec9" letter-spacing="1.5">STACK</text>
<text x="734.0" y="166.0" font-family="ui-monospace,SFMono-Regular,Menlo,Consolas,monospace" font-size="12" fill="#dce8f5">TS / REACT</text>
<line x1="722" y1="174" x2="722" y2="218" stroke="#1f3a57"/>
<text x="572.0" y="193.0" font-family="ui-monospace,SFMono-Regular,Menlo,Consolas,monospace" font-size="8" fill="#93aec9" letter-spacing="1.5">STATUS</text>
<text x="572.0" y="210.0" font-family="ui-monospace,SFMono-Regular,Menlo,Consolas,monospace" font-size="12" fill="#dce8f5">OPEN / REMOTE</text>
<text x="734.0" y="193.0" font-family="ui-monospace,SFMono-Regular,Menlo,Consolas,monospace" font-size="8" fill="#93aec9" letter-spacing="1.5">SHEET</text>
<text x="734.0" y="210.0" font-family="ui-monospace,SFMono-Regular,Menlo,Consolas,monospace" font-size="12" fill="#dce8f5">001</text>
<line x1="28" y1="226" x2="520" y2="226" stroke="#2f5480"/>
<line x1="28.0" y1="226" x2="28.0" y2="220" stroke="#2f5480"/>
<line x1="69.0" y1="226" x2="69.0" y2="223" stroke="#2f5480"/>
<line x1="110.0" y1="226" x2="110.0" y2="223" stroke="#2f5480"/>
<line x1="151.0" y1="226" x2="151.0" y2="220" stroke="#2f5480"/>
<line x1="192.0" y1="226" x2="192.0" y2="223" stroke="#2f5480"/>
<line x1="233.0" y1="226" x2="233.0" y2="223" stroke="#2f5480"/>
<line x1="274.0" y1="226" x2="274.0" y2="220" stroke="#2f5480"/>
<line x1="315.0" y1="226" x2="315.0" y2="223" stroke="#2f5480"/>
<line x1="356.0" y1="226" x2="356.0" y2="223" stroke="#2f5480"/>
<line x1="397.0" y1="226" x2="397.0" y2="220" stroke="#2f5480"/>
<line x1="438.0" y1="226" x2="438.0" y2="223" stroke="#2f5480"/>
<line x1="479.0" y1="226" x2="479.0" y2="223" stroke="#2f5480"/>
<line x1="520.0" y1="226" x2="520.0" y2="220" stroke="#2f5480"/>
<text x="28.0" y="218.0" font-family="ui-monospace,SFMono-Regular,Menlo,Consolas,monospace" font-size="9" fill="#93aec9" letter-spacing="1.3">PUBLIC BUILD LOG</text>
<text x="520.0" y="218.0" font-family="ui-monospace,SFMono-Regular,Menlo,Consolas,monospace" font-size="9" fill="#93aec9" text-anchor="end" letter-spacing="1.3">LAST 12 MONTHS</text>
</svg>
